<svg xmlns="http://www.w3.org/2000/svg" viewBox="0 0 24 24" fill="#0052CC">
  <path d="M3.12 17.09c-.24.37-.46.8-.7 1.23a.48.48 0 0 0 .17.65l3.42 2.13a.47.47 0 0 0 .65-.14c.21-.36.46-.77.73-1.18 1.97-2.97 3.97-2.63 7.58-.86l3.43 1.68a.48.48 0 0 0 .64-.21l1.57-3.44a.47.47 0 0 0-.2-.61c-.87-.44-2.59-1.27-3.43-1.68-5.59-2.69-10.34-2.58-13.86 2.43zM20.88 6.91c.24-.37.46-.8.7-1.23a.48.48 0 0 0-.17-.65L18 2.9a.47.47 0 0 0-.65.14c-.21.36-.46.77-.73 1.18-1.97 2.97-3.97 2.63-7.58.86L5.6 3.4a.48.48 0 0 0-.64.21L3.4 7.05a.47.47 0 0 0 .2.61c.87.44 2.59 1.27 3.43 1.68 5.59 2.69 10.34 2.58 13.86-2.43z"/>
</svg>
